<svg width="20px" viewBox="0 0 31 30" xmlns="http://www.w3.org/2000/svg">
<mask id="path-1-inside-1_33_842" fill="white">
<path fill-rule="evenodd" clip-rule="evenodd" d="M15.2024 0C6.91489 0 0.202393 6.88228 0.202393 15.3794C0.202393 22.1848 4.49614 27.9328 10.4586 29.9706C11.2086 30.1052 11.4899 29.6438 11.4899 29.2401C11.4899 28.8748 11.4711 27.6637 11.4711 26.3757C7.70239 27.087 6.72739 25.4337 6.42739 24.5686C6.25864 24.1264 5.52739 22.7615 4.88989 22.3963C4.36489 22.1079 3.61489 21.3966 4.87114 21.3774C6.05239 21.3582 6.89614 22.4924 7.17739 22.9538C8.52739 25.2799 10.6836 24.6263 11.5461 24.2226C11.6774 23.2229 12.0711 22.5501 12.5024 22.1656C9.16489 21.7811 5.67739 20.4546 5.67739 14.572C5.67739 12.8995 6.25864 11.5153 7.21489 10.4388C7.06489 10.0543 6.53989 8.4779 7.36489 6.36323C7.36489 6.36323 8.62114 5.95952 11.4899 7.93962C12.6899 7.59358 13.9649 7.42056 15.2399 7.42056C16.5149 7.42056 17.7899 7.59358 18.9899 7.93962C21.8586 5.9403 23.1149 6.36323 23.1149 6.36323C23.9399 8.4779 23.4149 10.0543 23.2649 10.4388C24.2211 11.5153 24.8024 12.8803 24.8024 14.572C24.8024 20.4738 21.2961 21.7811 17.9586 22.1656C18.5024 22.6462 18.9711 23.5689 18.9711 25.0108C18.9711 27.0678 18.9524 28.721 18.9524 29.2401C18.9524 29.6438 19.2336 30.1244 19.9836 29.9706C22.9614 28.9399 25.549 26.9778 27.3821 24.3602C29.2153 21.7428 30.2016 18.6018 30.2024 15.3794C30.2024 6.88228 23.4899 0 15.2024 0V0Z"/>
</mask>
<path fill-rule="evenodd" clip-rule="evenodd" d="M15.2024 0C6.91489 0 0.202393 6.88228 0.202393 15.3794C0.202393 22.1848 4.49614 27.9328 10.4586 29.9706C11.2086 30.1052 11.4899 29.6438 11.4899 29.2401C11.4899 28.8748 11.4711 27.6637 11.4711 26.3757C7.70239 27.087 6.72739 25.4337 6.42739 24.5686C6.25864 24.1264 5.52739 22.7615 4.88989 22.3963C4.36489 22.1079 3.61489 21.3966 4.87114 21.3774C6.05239 21.3582 6.89614 22.4924 7.17739 22.9538C8.52739 25.2799 10.6836 24.6263 11.5461 24.2226C11.6774 23.2229 12.0711 22.5501 12.5024 22.1656C9.16489 21.7811 5.67739 20.4546 5.67739 14.572C5.67739 12.8995 6.25864 11.5153 7.21489 10.4388C7.06489 10.0543 6.53989 8.4779 7.36489 6.36323C7.36489 6.36323 8.62114 5.95952 11.4899 7.93962C12.6899 7.59358 13.9649 7.42056 15.2399 7.42056C16.5149 7.42056 17.7899 7.59358 18.9899 7.93962C21.8586 5.9403 23.1149 6.36323 23.1149 6.36323C23.9399 8.4779 23.4149 10.0543 23.2649 10.4388C24.2211 11.5153 24.8024 12.8803 24.8024 14.572C24.8024 20.4738 21.2961 21.7811 17.9586 22.1656C18.5024 22.6462 18.9711 23.5689 18.9711 25.0108C18.9711 27.0678 18.9524 28.721 18.9524 29.2401C18.9524 29.6438 19.2336 30.1244 19.9836 29.9706C22.9614 28.9399 25.549 26.9778 27.3821 24.3602C29.2153 21.7428 30.2016 18.6018 30.2024 15.3794C30.2024 6.88228 23.4899 0 15.2024 0V0Z" fill="currentColor" stroke="currentColor" stroke-width="10.0365" mask="url(#path-1-inside-1_33_842)"/>
</svg>
