<svg height="20px" viewBox="0 0 31 30" fill="none" xmlns="http://www.w3.org/2000/svg">
<mask id="path-1-inside-1_33_864" fill="white">
<path fill-rule="evenodd" clip-rule="evenodd" d="M0.202393 2.50625C0.202393 1.84155 0.466446 1.20408 0.936458 0.734065C1.40647 0.264053 2.04394 0 2.70864 0H27.6961C28.0252 0 28.3512 0.0648302 28.6551 0.190781C28.9592 0.316733 29.2355 0.501336 29.4683 0.734065C29.701 0.966794 29.8856 1.24308 30.0116 1.54714C30.1375 1.85122 30.2024 2.17712 30.2024 2.50625V27.4937C30.2024 27.8229 30.1375 28.1488 30.0116 28.4527C29.8856 28.7569 29.701 29.0331 29.4683 29.2659C29.2355 29.4986 28.9592 29.6832 28.6551 29.8092C28.3512 29.9351 28.0252 30 27.6961 30H2.70864C2.04394 30 1.40647 29.7359 0.936458 29.2659C0.466446 28.7959 0.202393 28.1585 0.202393 27.4937V2.50625ZM12.0774 11.4375H16.1399V13.4788C16.7255 12.3049 18.2261 11.25 20.4804 11.25C24.8017 11.25 25.8274 13.5863 25.8274 17.873V25.8125H21.4524V18.8493C21.4524 16.4082 20.8668 15.0312 19.3774 15.0312C17.3118 15.0312 16.4524 16.5156 16.4524 18.8493V25.8125H12.0774V11.4375ZM4.57738 25.625H8.95239V11.25H4.57738V25.625ZM9.57738 6.56248C9.57738 6.93183 9.50463 7.29756 9.3633 7.63878C9.22195 7.98001 9.01478 8.29006 8.75361 8.55122C8.49245 8.81238 8.1824 9.01956 7.84118 9.1609C7.49995 9.30224 7.13422 9.37499 6.76488 9.37499C6.39555 9.37499 6.02982 9.30224 5.68859 9.1609C5.34735 9.01956 5.03732 8.81238 4.77614 8.55122C4.51498 8.29006 4.30782 7.98001 4.16647 7.63878C4.02514 7.29756 3.95239 6.93183 3.95239 6.56248C3.95239 5.81657 4.2487 5.1012 4.77614 4.57375C5.30359 4.04631 6.01896 3.74999 6.76488 3.74999C7.51081 3.74999 8.22618 4.04631 8.75361 4.57375C9.28106 5.1012 9.57738 5.81657 9.57738 6.56248Z"/>
</mask>
<path fill-rule="evenodd" clip-rule="evenodd" d="M0.202393 2.50625C0.202393 1.84155 0.466446 1.20408 0.936458 0.734065C1.40647 0.264053 2.04394 0 2.70864 0H27.6961C28.0252 0 28.3512 0.0648302 28.6551 0.190781C28.9592 0.316733 29.2355 0.501336 29.4683 0.734065C29.701 0.966794 29.8856 1.24308 30.0116 1.54714C30.1375 1.85122 30.2024 2.17712 30.2024 2.50625V27.4937C30.2024 27.8229 30.1375 28.1488 30.0116 28.4527C29.8856 28.7569 29.701 29.0331 29.4683 29.2659C29.2355 29.4986 28.9592 29.6832 28.6551 29.8092C28.3512 29.9351 28.0252 30 27.6961 30H2.70864C2.04394 30 1.40647 29.7359 0.936458 29.2659C0.466446 28.7959 0.202393 28.1585 0.202393 27.4937V2.50625ZM12.0774 11.4375H16.1399V13.4788C16.7255 12.3049 18.2261 11.25 20.4804 11.25C24.8017 11.25 25.8274 13.5863 25.8274 17.873V25.8125H21.4524V18.8493C21.4524 16.4082 20.8668 15.0312 19.3774 15.0312C17.3118 15.0312 16.4524 16.5156 16.4524 18.8493V25.8125H12.0774V11.4375ZM4.57738 25.625H8.95239V11.25H4.57738V25.625ZM9.57738 6.56248C9.57738 6.93183 9.50463 7.29756 9.3633 7.63878C9.22195 7.98001 9.01478 8.29006 8.75361 8.55122C8.49245 8.81238 8.1824 9.01956 7.84118 9.1609C7.49995 9.30224 7.13422 9.37499 6.76488 9.37499C6.39555 9.37499 6.02982 9.30224 5.68859 9.1609C5.34735 9.01956 5.03732 8.81238 4.77614 8.55122C4.51498 8.29006 4.30782 7.98001 4.16647 7.63878C4.02514 7.29756 3.95239 6.93183 3.95239 6.56248C3.95239 5.81657 4.2487 5.1012 4.77614 4.57375C5.30359 4.04631 6.01896 3.74999 6.76488 3.74999C7.51081 3.74999 8.22618 4.04631 8.75361 4.57375C9.28106 5.1012 9.57738 5.81657 9.57738 6.56248Z" fill="currentColor" stroke="currentColor" stroke-width="10.9494" mask="url(#path-1-inside-1_33_864)"/>
</svg>
