<svg height="20px" viewBox="0 0 27 30" xmlns="http://www.w3.org/2000/svg">
<path fill-rule="evenodd" clip-rule="evenodd" d="M6.77382 8.85714H0.202393L10.2747 0H26.9167L20.0595 5.71429C20.083 5.77894 20.1129 5.8564 20.1469 5.94488L20.147 5.94493C20.3889 6.57333 20.8448 7.75749 20.7738 8.85714C20.6023 11.516 19.1949 12.6815 18.0974 13.5903C17.367 14.1952 16.7738 14.6864 16.7738 15.4286C16.7738 16.612 17.6562 17.2563 18.69 18.011C20.1519 19.0785 21.9167 20.3669 21.9167 23.7143C22.0595 27.8571 17.631 30 13.631 30C10.1895 30 5.48811 29 4.91668 25.4286C4.34525 21.8571 9.20239 18.2857 14.7738 18.8571C13.7116 17.7949 13.2024 16.5714 13.9167 15C11.9167 15 10.3738 14.5714 8.77382 13.4286C7.17382 12.2857 6.77382 9.90476 6.77382 8.85714ZM15.7738 13.7143C13.7738 14.7143 11.2023 12.7143 10.2023 10.4286C9.20235 8.14286 9.77376 4.85716 11.9166 4.00001C14.0595 3.14286 16.3452 5.14285 17.3452 7.42857C18.3452 9.71428 17.7738 12.7143 15.7738 13.7143ZM16.7915 20.3874C17.9357 21.1149 19.6543 22.2076 19.7738 24C19.9167 26.8571 18.0595 28.5714 13.9167 28.5714C9.77383 28.5714 8.05954 26.1429 8.05954 24.2857C8.05954 20.7143 12.3453 19 16.2024 20C16.366 20.1168 16.5677 20.2451 16.7915 20.3874Z" fill="currentColor"/>
</svg>
